<svg xmlns="http://www.w3.org/2000/svg" xmlns:xlink="http://www.w3.org/1999/xlink" version="1.1" width="256" height="256" viewBox="0 0 256 256" xml:space="preserve">

<defs>
</defs>
<g style="stroke: none; stroke-width: 0; stroke-dasharray: none; stroke-linecap: butt; stroke-linejoin: miter; stroke-miterlimit: 10; fill: none; fill-rule: nonzero; opacity: 1;" transform="translate(1.4065934065934016 1.4065934065934016) scale(2.81 2.81)" >
	<path d="M 60.364 54.569 v -0.693 c 0 -3.176 1.29 -6.24 3.634 -8.628 c 4.911 -5.005 7.615 -11.623 7.615 -18.635 c 0 -7.349 -3.083 -14.441 -8.458 -19.458 c -5.45 -5.086 -12.561 -7.6 -20.042 -7.089 C 30.043 0.967 19.692 11.081 18.501 24.113 c -0.701 7.68 1.924 15.271 7.203 20.827 c 2.536 2.668 3.932 6.084 3.932 9.619 c 0 1.48 0.631 2.808 1.629 3.753 c -1.531 0.807 -2.589 2.396 -2.589 4.245 c 0 1.56 0.758 2.935 1.911 3.815 c -1.154 0.881 -1.911 2.255 -1.911 3.815 c 0 2.521 1.953 4.572 4.422 4.777 c -0.595 0.801 -0.96 1.783 -0.96 2.855 c 0 2.567 2.025 4.653 4.559 4.789 C 37.182 86.763 40.718 90 45 90 s 7.819 -3.237 8.304 -7.391 c 2.533 -0.137 4.558 -2.222 4.558 -4.789 c 0 -1.072 -0.364 -2.054 -0.96 -2.855 c 2.468 -0.204 4.421 -2.255 4.421 -4.777 c 0 -1.56 -0.758 -2.935 -1.911 -3.815 c 1.154 -0.881 1.911 -2.255 1.911 -3.815 c 0 -1.844 -1.053 -3.43 -2.578 -4.239 c 0.032 -0.03 0.07 -0.052 0.101 -0.083 C 59.825 57.256 60.364 55.954 60.364 54.569 z M 27.155 43.562 c -4.882 -5.138 -7.311 -12.161 -6.661 -19.268 c 1.1 -12.049 10.671 -21.4 22.758 -22.234 C 43.844 2.02 44.433 2 45.019 2 c 6.263 0 12.163 2.315 16.772 6.617 c 4.971 4.64 7.822 11.2 7.822 17.997 c 0 6.485 -2.501 12.605 -7.043 17.234 c -2.712 2.764 -4.206 6.326 -4.206 10.029 v 0.693 c 0 0.851 -0.331 1.649 -0.933 2.251 c -0.574 0.574 -1.331 0.892 -2.139 0.92 h -4.581 V 46.653 c 0 -5.01 2.063 -9.885 5.658 -13.375 c 0.396 -0.385 0.406 -1.018 0.021 -1.414 c -0.386 -0.396 -1.018 -0.406 -1.414 -0.021 c -3.982 3.864 -6.266 9.262 -6.266 14.81 V 57.74 h -7.424 V 46.653 c 0 -5.549 -2.284 -10.947 -6.265 -14.81 c -0.396 -0.384 -1.029 -0.375 -1.414 0.021 c -0.384 0.396 -0.375 1.029 0.021 1.414 c 3.596 3.489 5.658 8.363 5.658 13.375 V 57.74 h -4.472 c -1.753 -0.001 -3.18 -1.428 -3.18 -3.182 C 31.636 50.509 30.044 46.604 27.155 43.562 z M 45 88 c -3.169 0 -5.796 -2.33 -6.278 -5.365 h 12.557 C 50.797 85.67 48.169 88 45 88 z M 53.046 80.635 H 36.954 c -1.553 0 -2.816 -1.263 -2.816 -2.815 s 1.263 -2.815 2.816 -2.815 h 16.092 c 1.553 0 2.815 1.263 2.815 2.815 S 54.599 80.635 53.046 80.635 z M 59.323 70.188 c 0 1.553 -1.263 2.816 -2.815 2.816 h -3.462 H 36.954 h -3.462 c -1.553 0 -2.816 -1.264 -2.816 -2.816 s 1.263 -2.815 2.816 -2.815 h 23.016 C 58.061 67.372 59.323 68.635 59.323 70.188 z M 56.508 59.74 c 1.553 0 2.815 1.264 2.815 2.816 s -1.263 2.815 -2.815 2.815 H 33.492 c -1.553 0 -2.816 -1.263 -2.816 -2.815 s 1.263 -2.816 2.816 -2.816 h 1.323 l 20.364 0.011 c 0.002 0 0.003 0 0.005 0 c 0.037 0 0.073 -0.01 0.11 -0.011 H 56.508 z" style="stroke: none; stroke-width: 1; stroke-dasharray: none; stroke-linecap: butt; stroke-linejoin: miter; stroke-miterlimit: 10; fill: rgb(0,0,0); fill-rule: nonzero; opacity: 1;" transform=" matrix(1 0 0 1 0 0) " stroke-linecap="round" />
</g>
</svg>